<svg xmlns="http://www.w3.org/2000/svg" xmlns:xlink="http://www.w3.org/1999/xlink" width="1920" zoomAndPan="magnify" viewBox="0 0 1440 809.999993" height="1080" preserveAspectRatio="xMidYMid meet" version="1.0"><defs><clipPath id="3851cf492b"><path d="M 673.046875 552.828125 L 766.796875 552.828125 L 766.796875 634.578125 L 673.046875 634.578125 Z M 673.046875 552.828125 " clip-rule="nonzero"/></clipPath><clipPath id="758053ce96"><path d="M 540.757812 552.828125 L 634.507812 552.828125 L 634.507812 634.578125 L 540.757812 634.578125 Z M 540.757812 552.828125 " clip-rule="nonzero"/></clipPath><clipPath id="519f4cd14e"><path d="M 937.628906 552.828125 L 1031.378906 552.828125 L 1031.378906 634.578125 L 937.628906 634.578125 Z M 937.628906 552.828125 " clip-rule="nonzero"/></clipPath><clipPath id="6ab2a033a3"><path d="M 408.46875 552.828125 L 502.21875 552.828125 L 502.21875 634.578125 L 408.46875 634.578125 Z M 408.46875 552.828125 " clip-rule="nonzero"/></clipPath><clipPath id="b021b80abd"><path d="M 805.339844 552.828125 L 899.089844 552.828125 L 899.089844 634.578125 L 805.339844 634.578125 Z M 805.339844 552.828125 " clip-rule="nonzero"/></clipPath><clipPath id="48edce4a4f"><path d="M 711.828125 608.640625 L 741.078125 608.640625 L 741.078125 660.390625 L 711.828125 660.390625 Z M 711.828125 608.640625 " clip-rule="nonzero"/></clipPath><clipPath id="0bfd0f9df6"><path d="M 460.855469 586.695312 L 481.855469 586.695312 L 481.855469 614.445312 L 460.855469 614.445312 Z M 460.855469 586.695312 " clip-rule="nonzero"/></clipPath><clipPath id="00c2655013"><path d="M 477 586.695312 L 481.855469 586.695312 L 481.855469 592 L 477 592 Z M 477 586.695312 " clip-rule="nonzero"/></clipPath><clipPath id="98d4bbe99c"><path d="M 463 613 L 480 613 L 480 614.445312 L 463 614.445312 Z M 463 613 " clip-rule="nonzero"/></clipPath><clipPath id="47dac4f092"><path d="M 461 606 L 481.855469 606 L 481.855469 608 L 461 608 Z M 461 606 " clip-rule="nonzero"/></clipPath><clipPath id="9052a2721e"><path d="M 466 586.695312 L 468 586.695312 L 468 601 L 466 601 Z M 466 586.695312 " clip-rule="nonzero"/></clipPath><clipPath id="1285bf5726"><path d="M 434 586.566406 L 453 586.566406 L 453 598 L 434 598 Z M 434 586.566406 " clip-rule="nonzero"/></clipPath><clipPath id="cd5e5ef2dc"><path d="M 444 586.566406 L 453 586.566406 L 453 595 L 444 595 Z M 444 586.566406 " clip-rule="nonzero"/></clipPath><clipPath id="447022ba3a"><path d="M 431.984375 597 L 455.234375 597 L 455.234375 610 L 431.984375 610 Z M 431.984375 597 " clip-rule="nonzero"/></clipPath><clipPath id="a76094c773"><path d="M 560.511719 586.695312 L 583.761719 586.695312 L 583.761719 612.195312 L 560.511719 612.195312 Z M 560.511719 586.695312 " clip-rule="nonzero"/></clipPath><clipPath id="064613dc08"><path d="M 828.523438 590.230469 L 852.523438 590.230469 L 852.523438 620.980469 L 828.523438 620.980469 Z M 828.523438 590.230469 " clip-rule="nonzero"/></clipPath><clipPath id="dc87132bb6"><path d="M 844 590.230469 L 852.523438 590.230469 L 852.523438 598 L 844 598 Z M 844 590.230469 " clip-rule="nonzero"/></clipPath><clipPath id="f349a6c6e8"><path d="M 593 591.167969 L 615 591.167969 L 615 619.667969 L 593 619.667969 Z M 593 591.167969 " clip-rule="nonzero"/></clipPath><clipPath id="b116c03dcd"><path d="M 593 609 L 615 609 L 615 619.667969 L 593 619.667969 Z M 593 609 " clip-rule="nonzero"/></clipPath><clipPath id="dd06380972"><path d="M 592.757812 591.167969 L 615.257812 591.167969 L 615.257812 619.667969 L 592.757812 619.667969 Z M 592.757812 591.167969 " clip-rule="nonzero"/></clipPath><clipPath id="d210f28a2d"><path d="M 966.410156 583.667969 L 1002.410156 583.667969 L 1002.410156 619.667969 L 966.410156 619.667969 Z M 966.410156 583.667969 " clip-rule="nonzero"/></clipPath></defs><rect x="-144" width="1728" fill="#ffffff" y="-80.999999" height="971.999992" fill-opacity="1"/><rect x="-144" width="1728" fill="#ffffff" y="-80.999999" height="971.999992" fill-opacity="1"/><rect x="-144" width="1728" fill="#ffffff" y="-80.999999" height="971.999992" fill-opacity="1"/><path fill="#ffe9a2" d="M 683.582031 553.890625 L 707.503906 553.890625 L 710.523438 556.046875 L 711.730469 557.398438 L 713.726562 559.261719 L 715.617188 561.042969 L 727.957031 560.609375 C 727.957031 560.609375 754.636719 561.136719 754.8125 561.226562 C 754.992188 561.316406 757.351562 562.445312 757.351562 562.445312 L 758.738281 567.34375 L 760.492188 570.058594 L 763.542969 571.921875 L 764.386719 573.488281 L 765.695312 591.984375 L 764.933594 629.464844 L 763.542969 630.453125 L 760.515625 633.132812 L 708.53125 630.246094 L 679.414062 631.710938 L 678.53125 630.246094 L 676.207031 628.347656 L 674.039062 615.300781 L 674.597656 591.265625 C 674.597656 591.265625 675.628906 556.828125 675.667969 556.78125 C 675.703125 556.730469 676.207031 556.046875 676.207031 556.046875 L 676.480469 555.699219 Z M 683.582031 553.890625 " fill-opacity="1" fill-rule="nonzero"/><g clip-path="url(#3851cf492b)"><path fill="#0d0d0d" d="M 766.796875 571.921875 L 766.796875 631.601562 L 763.542969 631.601562 L 763.542969 634.554688 L 679.328125 634.554688 L 679.328125 631.570312 L 682.222656 631.570312 L 682.222656 578.074219 L 685.476562 578.074219 L 685.476562 575.121094 L 710.519531 575.121094 L 710.519531 571.925781 L 713.726562 571.925781 L 713.726562 575.140625 L 710.519531 575.140625 L 710.519531 578.304688 L 685.476562 578.304688 L 685.476562 628.179688 L 759.210938 628.179688 L 759.210938 571.921875 L 713.726562 571.921875 L 713.726562 568.738281 L 757.351562 568.738281 L 757.351562 562.445312 L 760.554688 562.445312 L 760.554688 568.738281 L 763.542969 568.738281 L 763.542969 571.921875 Z M 673.046875 628.347656 L 676.207031 628.347656 L 676.207031 556.046875 L 673.046875 556.046875 Z M 679.414062 631.5625 L 679.414062 628.347656 L 676.207031 628.347656 L 676.207031 631.5625 Z M 676.207031 552.863281 L 676.207031 556.046875 L 710.519531 556.046875 L 710.519531 552.863281 Z M 710.519531 556.046875 L 710.519531 559.261719 L 713.726562 559.261719 L 713.726562 556.046875 Z M 713.726562 559.261719 L 713.726562 562.445312 L 757.351562 562.445312 L 757.351562 559.261719 C 757.351562 559.261719 713.726562 559.261719 713.726562 559.261719 Z M 713.726562 559.261719 " fill-opacity="1" fill-rule="nonzero"/></g><path fill="#ffffff" d="M 551.292969 553.890625 L 575.214844 553.890625 L 578.230469 556.046875 L 579.441406 557.398438 L 581.4375 559.261719 L 583.328125 561.042969 L 595.667969 560.609375 C 595.667969 560.609375 622.34375 561.136719 622.523438 561.226562 C 622.703125 561.316406 625.0625 562.445312 625.0625 562.445312 L 626.449219 567.34375 L 628.203125 570.058594 L 631.253906 571.921875 L 632.097656 573.488281 L 633.40625 591.984375 L 632.644531 629.464844 L 631.253906 630.453125 L 628.226562 633.132812 L 576.242188 630.246094 L 547.121094 631.710938 L 546.242188 630.246094 L 543.917969 628.347656 L 541.75 615.300781 L 542.308594 591.265625 C 542.308594 591.265625 543.339844 556.828125 543.375 556.78125 C 543.410156 556.730469 543.917969 556.046875 543.917969 556.046875 L 544.191406 555.699219 Z M 551.292969 553.890625 " fill-opacity="1" fill-rule="nonzero"/><g clip-path="url(#758053ce96)"><path fill="#0d0d0d" d="M 634.503906 571.921875 L 634.503906 631.601562 L 631.253906 631.601562 L 631.253906 634.554688 L 547.039062 634.554688 L 547.039062 631.570312 L 549.933594 631.570312 L 549.933594 578.074219 L 553.183594 578.074219 L 553.183594 575.121094 L 578.230469 575.121094 L 578.230469 571.925781 L 581.4375 571.925781 L 581.4375 575.140625 L 578.230469 575.140625 L 578.230469 578.304688 L 553.183594 578.304688 L 553.183594 628.179688 L 626.921875 628.179688 L 626.921875 571.921875 L 581.4375 571.921875 L 581.4375 568.738281 L 625.0625 568.738281 L 625.0625 562.445312 L 628.265625 562.445312 L 628.265625 568.738281 L 631.253906 568.738281 L 631.253906 571.921875 Z M 540.757812 628.347656 L 543.917969 628.347656 L 543.917969 556.046875 L 540.757812 556.046875 Z M 547.121094 631.5625 L 547.121094 628.347656 L 543.917969 628.347656 L 543.917969 631.5625 Z M 543.917969 552.863281 L 543.917969 556.046875 L 578.230469 556.046875 L 578.230469 552.863281 Z M 578.230469 556.046875 L 578.230469 559.261719 L 581.4375 559.261719 L 581.4375 556.046875 Z M 581.4375 559.261719 L 581.4375 562.445312 L 625.0625 562.445312 L 625.0625 559.261719 C 625.0625 559.261719 581.4375 559.261719 581.4375 559.261719 Z M 581.4375 559.261719 " fill-opacity="1" fill-rule="nonzero"/></g><path fill="#ffffff" d="M 948.160156 553.890625 L 972.085938 553.890625 L 975.101562 556.046875 L 976.308594 557.398438 L 978.304688 559.261719 L 980.199219 561.042969 L 992.539062 560.609375 C 992.539062 560.609375 1019.214844 561.136719 1019.394531 561.226562 C 1019.574219 561.316406 1021.929688 562.445312 1021.929688 562.445312 L 1023.320312 567.34375 L 1025.074219 570.058594 L 1028.125 571.921875 L 1028.96875 573.488281 L 1030.277344 591.984375 L 1029.515625 629.464844 L 1028.125 630.453125 L 1025.097656 633.132812 L 973.109375 630.246094 L 943.992188 631.710938 L 943.113281 630.246094 L 940.789062 628.347656 L 938.621094 615.300781 L 939.179688 591.265625 C 939.179688 591.265625 940.210938 556.828125 940.246094 556.78125 C 940.28125 556.730469 940.789062 556.046875 940.789062 556.046875 L 941.0625 555.699219 Z M 948.160156 553.890625 " fill-opacity="1" fill-rule="nonzero"/><g clip-path="url(#519f4cd14e)"><path fill="#0d0d0d" d="M 1031.375 571.921875 L 1031.375 631.601562 L 1028.121094 631.601562 L 1028.121094 634.554688 L 943.910156 634.554688 L 943.910156 631.570312 L 946.804688 631.570312 L 946.804688 578.074219 L 950.054688 578.074219 L 950.054688 575.121094 L 975.101562 575.121094 L 975.101562 571.925781 L 978.304688 571.925781 L 978.304688 575.140625 L 975.101562 575.140625 L 975.101562 578.304688 L 950.054688 578.304688 L 950.054688 628.179688 L 1023.792969 628.179688 L 1023.792969 571.921875 L 978.304688 571.921875 L 978.304688 568.738281 L 1021.929688 568.738281 L 1021.929688 562.445312 L 1025.136719 562.445312 L 1025.136719 568.738281 L 1028.121094 568.738281 L 1028.121094 571.921875 Z M 937.628906 628.347656 L 940.789062 628.347656 L 940.789062 556.046875 L 937.628906 556.046875 Z M 943.992188 631.5625 L 943.992188 628.347656 L 940.789062 628.347656 L 940.789062 631.5625 Z M 940.789062 552.863281 L 940.789062 556.046875 L 975.101562 556.046875 L 975.101562 552.863281 Z M 975.101562 556.046875 L 975.101562 559.261719 L 978.304688 559.261719 L 978.304688 556.046875 Z M 978.304688 559.261719 L 978.304688 562.445312 L 1021.929688 562.445312 L 1021.929688 559.261719 C 1021.929688 559.261719 978.304688 559.261719 978.304688 559.261719 Z M 978.304688 559.261719 " fill-opacity="1" fill-rule="nonzero"/></g><path fill="#ffffff" d="M 419 553.890625 L 442.921875 553.890625 L 445.941406 556.046875 L 447.148438 557.398438 L 449.144531 559.261719 L 451.039062 561.042969 L 463.375 560.609375 C 463.375 560.609375 490.054688 561.136719 490.234375 561.226562 C 490.410156 561.316406 492.769531 562.445312 492.769531 562.445312 L 494.15625 567.34375 L 495.914062 570.058594 L 498.960938 571.921875 L 499.808594 573.488281 L 501.117188 591.984375 L 500.351562 629.464844 L 498.960938 630.453125 L 495.933594 633.132812 L 443.949219 630.246094 L 414.832031 631.710938 L 413.953125 630.246094 L 411.628906 628.347656 L 409.457031 615.300781 L 410.019531 591.265625 C 410.019531 591.265625 411.050781 556.828125 411.085938 556.78125 C 411.121094 556.730469 411.628906 556.046875 411.628906 556.046875 L 411.898438 555.699219 Z M 419 553.890625 " fill-opacity="1" fill-rule="nonzero"/><g clip-path="url(#6ab2a033a3)"><path fill="#0d0d0d" d="M 502.214844 571.921875 L 502.214844 631.601562 L 498.960938 631.601562 L 498.960938 634.554688 L 414.75 634.554688 L 414.75 631.570312 L 417.640625 631.570312 L 417.640625 578.074219 L 420.894531 578.074219 L 420.894531 575.121094 L 445.941406 575.121094 L 445.941406 571.925781 L 449.144531 571.925781 L 449.144531 575.140625 L 445.941406 575.140625 L 445.941406 578.304688 L 420.894531 578.304688 L 420.894531 628.179688 L 494.632812 628.179688 L 494.632812 571.921875 L 449.144531 571.921875 L 449.144531 568.738281 L 492.769531 568.738281 L 492.769531 562.445312 L 495.972656 562.445312 L 495.972656 568.738281 L 498.960938 568.738281 L 498.960938 571.921875 Z M 408.46875 628.347656 L 411.628906 628.347656 L 411.628906 556.046875 L 408.46875 556.046875 Z M 414.832031 631.5625 L 414.832031 628.347656 L 411.628906 628.347656 L 411.628906 631.5625 Z M 411.628906 552.863281 L 411.628906 556.046875 L 445.941406 556.046875 L 445.941406 552.863281 Z M 445.941406 556.046875 L 445.941406 559.261719 L 449.144531 559.261719 L 449.144531 556.046875 Z M 449.144531 559.261719 L 449.144531 562.445312 L 492.769531 562.445312 L 492.769531 559.261719 C 492.769531 559.261719 449.144531 559.261719 449.144531 559.261719 Z M 449.144531 559.261719 " fill-opacity="1" fill-rule="nonzero"/></g><path fill="#ffffff" d="M 815.871094 553.890625 L 839.792969 553.890625 L 842.8125 556.046875 L 844.019531 557.398438 L 846.015625 559.261719 L 847.910156 561.042969 L 860.246094 560.609375 C 860.246094 560.609375 886.925781 561.136719 887.105469 561.226562 C 887.28125 561.316406 889.640625 562.445312 889.640625 562.445312 L 891.027344 567.34375 L 892.78125 570.058594 L 895.832031 571.921875 L 896.679688 573.488281 L 897.988281 591.984375 L 897.222656 629.464844 L 895.832031 630.453125 L 892.804688 633.132812 L 840.820312 630.246094 L 811.703125 631.710938 L 810.824219 630.246094 L 808.5 628.347656 L 806.328125 615.300781 L 806.886719 591.265625 C 806.886719 591.265625 807.921875 556.828125 807.957031 556.78125 C 807.992188 556.730469 808.5 556.046875 808.5 556.046875 L 808.769531 555.699219 Z M 815.871094 553.890625 " fill-opacity="1" fill-rule="nonzero"/><g clip-path="url(#b021b80abd)"><path fill="#0d0d0d" d="M 899.085938 571.921875 L 899.085938 631.601562 L 895.832031 631.601562 L 895.832031 634.554688 L 811.617188 634.554688 L 811.617188 631.570312 L 814.511719 631.570312 L 814.511719 578.074219 L 817.765625 578.074219 L 817.765625 575.121094 L 842.8125 575.121094 L 842.8125 571.925781 L 846.015625 571.925781 L 846.015625 575.140625 L 842.8125 575.140625 L 842.8125 578.304688 L 817.765625 578.304688 L 817.765625 628.179688 L 891.503906 628.179688 L 891.503906 571.921875 L 846.015625 571.921875 L 846.015625 568.738281 L 889.640625 568.738281 L 889.640625 562.445312 L 892.84375 562.445312 L 892.84375 568.738281 L 895.832031 568.738281 L 895.832031 571.921875 Z M 805.339844 628.347656 L 808.5 628.347656 L 808.5 556.046875 L 805.339844 556.046875 Z M 811.703125 631.5625 L 811.703125 628.347656 L 808.5 628.347656 L 808.5 631.5625 Z M 808.5 552.863281 L 808.5 556.046875 L 842.8125 556.046875 L 842.8125 552.863281 Z M 842.8125 556.046875 L 842.8125 559.261719 L 846.015625 559.261719 L 846.015625 556.046875 Z M 846.015625 559.261719 L 846.015625 562.445312 L 889.640625 562.445312 L 889.640625 559.261719 C 889.640625 559.261719 846.015625 559.261719 846.015625 559.261719 Z M 846.015625 559.261719 " fill-opacity="1" fill-rule="nonzero"/></g><path fill="#ffffff" d="M 713.550781 611.445312 L 717.933594 614.140625 L 721.242188 617.492188 L 724.421875 620.78125 L 725.730469 621.441406 L 727.742188 624.070312 L 729.503906 625.34375 L 730.992188 627.382812 L 732.398438 628.453125 L 734.464844 630.886719 L 737.769531 634.238281 L 739.042969 636.078125 L 738.589844 638.503906 L 732.148438 639.222656 L 733.136719 642.574219 L 735.847656 649.46875 L 736.679688 653.75 L 735.46875 656.785156 L 732.648438 659.515625 L 729.828125 656.785156 L 727.851562 653.34375 L 726.980469 649.925781 L 725.753906 646.765625 L 724.136719 642.574219 L 722.683594 641.207031 L 720.828125 642.574219 L 719.464844 644.011719 L 717.933594 645.921875 L 715.890625 647.171875 L 713.324219 647.171875 L 713.324219 612.644531 Z M 713.550781 611.445312 " fill-opacity="1" fill-rule="nonzero"/><g clip-path="url(#48edce4a4f)"><path fill="#0d0d0d" d="M 717.933594 617.492188 L 717.933594 614.140625 L 721.242188 614.140625 L 721.242188 617.492188 C 721.242188 617.492188 717.933594 617.492188 717.933594 617.492188 Z M 724.546875 620.839844 L 724.546875 617.492188 L 721.242188 617.492188 L 721.242188 620.839844 Z M 727.851562 624.1875 L 727.851562 620.839844 L 724.546875 620.839844 L 724.546875 624.1875 Z M 731.15625 627.539062 L 731.15625 624.1875 L 727.851562 624.1875 L 727.851562 627.539062 Z M 734.464844 630.886719 L 734.464844 627.539062 L 731.15625 627.539062 L 731.15625 630.886719 Z M 737.769531 634.238281 L 737.769531 630.886719 L 734.464844 630.886719 L 734.464844 634.238281 Z M 737.769531 634.238281 L 737.769531 636.472656 L 729.828125 636.472656 L 729.828125 642.574219 L 732.808594 642.574219 L 732.808594 649.679688 L 735.46875 649.679688 L 735.46875 656.785156 L 738.503906 656.785156 L 738.503906 649.679688 L 735.847656 649.679688 L 735.847656 642.574219 L 733.136719 642.574219 L 733.136719 639.765625 L 741.074219 639.765625 L 741.074219 634.238281 Z M 717.523438 645.777344 L 714.628906 645.777344 L 714.628906 614.140625 L 717.933594 614.140625 L 717.933594 610.792969 L 714.628906 610.792969 L 714.628906 608.648438 L 711.828125 608.648438 L 711.828125 648.839844 L 717.933594 648.839844 L 717.933594 645.921875 L 720.828125 645.921875 L 720.828125 642.574219 L 717.523438 642.574219 Z M 720.828125 639.222656 L 720.828125 642.574219 L 724.136719 642.574219 L 724.136719 639.222656 Z M 727.171875 649.679688 L 727.171875 642.574219 L 724.136719 642.574219 L 724.136719 649.679688 L 726.792969 649.679688 L 726.792969 656.785156 L 729.828125 656.785156 L 729.828125 649.679688 Z M 729.828125 660.378906 L 735.46875 660.378906 L 735.46875 656.785156 L 729.828125 656.785156 Z M 729.828125 660.378906 " fill-opacity="1" fill-rule="nonzero"/></g><path fill="#000000" d="M 467.066406 589.632812 L 465.914062 589.632812 C 465.742188 589.632812 465.605469 589.492188 465.605469 589.320312 C 465.605469 589.144531 465.742188 589.003906 465.914062 589.003906 L 467.066406 589.003906 C 467.238281 589.003906 467.375 589.144531 467.375 589.320312 C 467.375 589.492188 467.238281 589.632812 467.066406 589.632812 Z M 467.066406 589.632812 " fill-opacity="1" fill-rule="nonzero"/><path fill="#000000" d="M 467.066406 591.238281 L 465.914062 591.238281 C 465.742188 591.238281 465.605469 591.097656 465.605469 590.925781 C 465.605469 590.75 465.742188 590.609375 465.914062 590.609375 L 467.066406 590.609375 C 467.238281 590.609375 467.375 590.75 467.375 590.925781 C 467.375 591.097656 467.238281 591.238281 467.066406 591.238281 Z M 467.066406 591.238281 " fill-opacity="1" fill-rule="nonzero"/><path fill="#000000" d="M 467.066406 592.84375 L 465.914062 592.84375 C 465.742188 592.84375 465.605469 592.703125 465.605469 592.527344 C 465.605469 592.355469 465.742188 592.214844 465.914062 592.214844 L 467.066406 592.214844 C 467.238281 592.214844 467.375 592.355469 467.375 592.527344 C 467.375 592.703125 467.238281 592.84375 467.066406 592.84375 Z M 467.066406 592.84375 " fill-opacity="1" fill-rule="nonzero"/><path fill="#000000" d="M 467.066406 594.449219 L 465.914062 594.449219 C 465.742188 594.449219 465.605469 594.308594 465.605469 594.132812 C 465.605469 593.960938 465.742188 593.820312 465.914062 593.820312 L 467.066406 593.820312 C 467.238281 593.820312 467.375 593.960938 467.375 594.132812 C 467.375 594.308594 467.238281 594.449219 467.066406 594.449219 Z M 467.066406 594.449219 " fill-opacity="1" fill-rule="nonzero"/><path fill="#000000" d="M 467.066406 596.054688 L 465.914062 596.054688 C 465.742188 596.054688 465.605469 595.910156 465.605469 595.738281 C 465.605469 595.5625 465.742188 595.421875 465.914062 595.421875 L 467.066406 595.421875 C 467.238281 595.421875 467.375 595.5625 467.375 595.738281 C 467.375 595.910156 467.238281 596.054688 467.066406 596.054688 Z M 467.066406 596.054688 " fill-opacity="1" fill-rule="nonzero"/><path fill="#000000" d="M 467.066406 597.65625 L 465.914062 597.65625 C 465.742188 597.65625 465.605469 597.515625 465.605469 597.34375 C 465.605469 597.167969 465.742188 597.027344 465.914062 597.027344 L 467.066406 597.027344 C 467.238281 597.027344 467.375 597.167969 467.375 597.34375 C 467.375 597.515625 467.238281 597.65625 467.066406 597.65625 Z M 467.066406 597.65625 " fill-opacity="1" fill-rule="nonzero"/><path fill="#000000" d="M 467.066406 599.261719 L 465.914062 599.261719 C 465.742188 599.261719 465.605469 599.121094 465.605469 598.949219 C 465.605469 598.773438 465.742188 598.632812 465.914062 598.632812 L 467.066406 598.632812 C 467.238281 598.632812 467.375 598.773438 467.375 598.949219 C 467.375 599.121094 467.238281 599.261719 467.066406 599.261719 Z M 467.066406 599.261719 " fill-opacity="1" fill-rule="nonzero"/><path fill="#000000" d="M 468.214844 588.828125 L 467.058594 588.828125 C 466.886719 588.828125 466.75 588.6875 466.75 588.515625 C 466.75 588.339844 466.886719 588.199219 467.058594 588.199219 L 468.214844 588.199219 C 468.382812 588.199219 468.523438 588.339844 468.523438 588.515625 C 468.523438 588.6875 468.382812 588.828125 468.214844 588.828125 Z M 468.214844 588.828125 " fill-opacity="1" fill-rule="nonzero"/><path fill="#000000" d="M 468.214844 590.433594 L 467.058594 590.433594 C 466.886719 590.433594 466.75 590.292969 466.75 590.121094 C 466.75 589.945312 466.886719 589.804688 467.058594 589.804688 L 468.214844 589.804688 C 468.382812 589.804688 468.523438 589.945312 468.523438 590.121094 C 468.523438 590.292969 468.382812 590.433594 468.214844 590.433594 Z M 468.214844 590.433594 " fill-opacity="1" fill-rule="nonzero"/><path fill="#000000" d="M 468.214844 592.039062 L 467.058594 592.039062 C 466.886719 592.039062 466.75 591.898438 466.75 591.722656 C 466.75 591.550781 466.886719 591.410156 467.058594 591.410156 L 468.214844 591.410156 C 468.382812 591.410156 468.523438 591.550781 468.523438 591.722656 C 468.523438 591.898438 468.382812 592.039062 468.214844 592.039062 Z M 468.214844 592.039062 " fill-opacity="1" fill-rule="nonzero"/><path fill="#000000" d="M 468.214844 593.644531 L 467.058594 593.644531 C 466.886719 593.644531 466.75 593.503906 466.75 593.328125 C 466.75 593.15625 466.886719 593.015625 467.058594 593.015625 L 468.214844 593.015625 C 468.382812 593.015625 468.523438 593.15625 468.523438 593.328125 C 468.523438 593.503906 468.382812 593.644531 468.214844 593.644531 Z M 468.214844 593.644531 " fill-opacity="1" fill-rule="nonzero"/><path fill="#000000" d="M 468.214844 595.25 L 467.058594 595.25 C 466.886719 595.25 466.75 595.109375 466.75 594.933594 C 466.75 594.757812 466.886719 594.617188 467.058594 594.617188 L 468.214844 594.617188 C 468.382812 594.617188 468.523438 594.757812 468.523438 594.933594 C 468.523438 595.109375 468.382812 595.25 468.214844 595.25 Z M 468.214844 595.25 " fill-opacity="1" fill-rule="nonzero"/><path fill="#000000" d="M 468.214844 596.851562 L 467.058594 596.851562 C 466.886719 596.851562 466.75 596.710938 466.75 596.539062 C 466.75 596.363281 466.886719 596.222656 467.058594 596.222656 L 468.214844 596.222656 C 468.382812 596.222656 468.523438 596.363281 468.523438 596.539062 C 468.523438 596.710938 468.382812 596.851562 468.214844 596.851562 Z M 468.214844 596.851562 " fill-opacity="1" fill-rule="nonzero"/><path fill="#000000" d="M 468.214844 598.457031 L 467.058594 598.457031 C 466.886719 598.457031 466.75 598.316406 466.75 598.144531 C 466.75 597.96875 466.886719 597.828125 467.058594 597.828125 L 468.214844 597.828125 C 468.382812 597.828125 468.523438 597.96875 468.523438 598.144531 C 468.523438 598.316406 468.382812 598.457031 468.214844 598.457031 Z M 468.214844 598.457031 " fill-opacity="1" fill-rule="nonzero"/><path fill="#000000" d="M 467.066406 605.914062 C 466.515625 605.914062 465.984375 605.679688 465.609375 605.265625 C 465.234375 604.851562 465.042969 604.292969 465.082031 603.730469 L 465.328125 600.398438 C 465.339844 600.234375 465.476562 600.109375 465.636719 600.109375 L 468.496094 600.109375 C 468.660156 600.109375 468.792969 600.234375 468.804688 600.398438 L 469.050781 603.730469 C 469.09375 604.292969 468.902344 604.851562 468.527344 605.265625 C 468.152344 605.679688 467.617188 605.914062 467.066406 605.914062 Z M 465.921875 600.738281 L 465.699219 603.777344 C 465.667969 604.171875 465.796875 604.546875 466.0625 604.835938 C 466.324219 605.125 466.679688 605.285156 467.066406 605.285156 C 467.453125 605.285156 467.8125 605.125 468.074219 604.835938 C 468.335938 604.546875 468.464844 604.171875 468.4375 603.777344 L 468.210938 600.738281 Z M 465.921875 600.738281 " fill-opacity="1" fill-rule="nonzero"/><path fill="#000000" d="M 467.066406 604.886719 C 466.824219 604.886719 466.589844 604.78125 466.421875 604.597656 C 466.257812 604.417969 466.175781 604.171875 466.191406 603.921875 L 466.273438 602.796875 C 466.289062 602.632812 466.421875 602.503906 466.582031 602.503906 L 467.550781 602.503906 C 467.710938 602.503906 467.847656 602.632812 467.859375 602.796875 L 467.941406 603.921875 C 467.960938 604.171875 467.875 604.417969 467.710938 604.597656 C 467.542969 604.78125 467.308594 604.886719 467.066406 604.886719 Z M 466.867188 603.132812 L 466.808594 603.96875 C 466.800781 604.042969 466.828125 604.117188 466.875 604.171875 C 466.925781 604.226562 466.992188 604.253906 467.066406 604.253906 C 467.140625 604.253906 467.207031 604.226562 467.257812 604.171875 C 467.308594 604.117188 467.332031 604.042969 467.328125 603.96875 L 467.265625 603.132812 Z M 466.867188 603.132812 " fill-opacity="1" fill-rule="nonzero"/><g clip-path="url(#0bfd0f9df6)"><path fill="#000000" d="M 480.289062 614.441406 L 462.398438 614.441406 C 461.546875 614.441406 460.855469 613.734375 460.855469 612.867188 L 460.855469 588.296875 C 460.855469 587.429688 461.546875 586.722656 462.398438 586.722656 L 477.519531 586.722656 C 477.691406 586.722656 477.828125 586.863281 477.828125 587.039062 C 477.828125 587.210938 477.691406 587.351562 477.519531 587.351562 L 462.398438 587.351562 C 461.886719 587.351562 461.472656 587.777344 461.472656 588.296875 L 461.472656 612.867188 C 461.472656 613.386719 461.886719 613.8125 462.398438 613.8125 L 480.289062 613.8125 C 480.539062 613.8125 480.769531 613.714844 480.945312 613.535156 C 481.121094 613.355469 481.214844 613.121094 481.214844 612.867188 L 481.210938 591.324219 C 481.210938 591.148438 481.351562 591.007812 481.519531 591.007812 C 481.691406 591.007812 481.828125 591.148438 481.828125 591.324219 L 481.832031 612.867188 C 481.832031 613.289062 481.671875 613.683594 481.378906 613.980469 C 481.089844 614.277344 480.703125 614.441406 480.289062 614.441406 Z M 480.289062 614.441406 " fill-opacity="1" fill-rule="nonzero"/></g><g clip-path="url(#00c2655013)"><path fill="#000000" d="M 481.519531 591.636719 L 477.519531 591.636719 C 477.351562 591.636719 477.210938 591.496094 477.210938 591.324219 L 477.210938 587.039062 C 477.210938 586.910156 477.289062 586.792969 477.40625 586.746094 C 477.523438 586.699219 477.65625 586.726562 477.746094 586.820312 L 481.742188 591.105469 C 481.828125 591.195312 481.851562 591.332031 481.804688 591.445312 C 481.753906 591.5625 481.644531 591.636719 481.519531 591.636719 Z M 477.828125 591.007812 L 480.800781 591.007812 L 477.828125 587.824219 Z M 477.828125 591.007812 " fill-opacity="1" fill-rule="nonzero"/></g><g clip-path="url(#98d4bbe99c)"><path fill="#000000" d="M 463.597656 613.8125 L 479.089844 613.8125 L 479.089844 614.441406 L 463.597656 614.441406 Z M 463.597656 613.8125 " fill-opacity="1" fill-rule="nonzero"/></g><g clip-path="url(#47dac4f092)"><path fill="#000000" d="M 461.164062 606.4375 L 481.523438 606.4375 L 481.523438 607.066406 L 461.164062 607.066406 Z M 461.164062 606.4375 " fill-opacity="1" fill-rule="nonzero"/></g><path fill="#000000" d="M 468.195312 611.695312 L 470.367188 608.964844 L 470.367188 608.414062 L 467.488281 608.414062 L 467.488281 609.003906 L 469.554688 609.003906 C 469.503906 609.0625 469.449219 609.125 469.394531 609.191406 C 469.296875 609.304688 469.261719 609.351562 469.246094 609.375 L 467.269531 611.894531 L 467.269531 612.464844 L 470.433594 612.464844 L 470.433594 611.875 L 468.046875 611.875 Z M 468.195312 611.695312 " fill-opacity="1" fill-rule="nonzero"/><path fill="#000000" d="M 470.945312 608.414062 L 471.582031 608.414062 L 471.582031 612.464844 L 470.945312 612.464844 Z M 470.945312 608.414062 " fill-opacity="1" fill-rule="nonzero"/><path fill="#000000" d="M 475.304688 609.0625 C 475.226562 608.886719 475.109375 608.742188 474.960938 608.640625 C 474.8125 608.535156 474.648438 608.472656 474.472656 608.449219 C 474.304688 608.425781 474.105469 608.414062 473.875 608.414062 L 472.359375 608.414062 L 472.359375 612.464844 L 472.992188 612.464844 L 472.992188 610.875 L 473.914062 610.875 C 474.433594 610.875 474.816406 610.757812 475.054688 610.53125 C 475.296875 610.300781 475.417969 609.992188 475.417969 609.613281 C 475.417969 609.421875 475.378906 609.238281 475.304688 609.0625 Z M 474.765625 609.628906 C 474.765625 610.070312 474.492188 610.28125 473.921875 610.28125 L 472.992188 610.28125 L 472.992188 609.003906 L 473.910156 609.003906 C 474.128906 609.003906 474.296875 609.019531 474.40625 609.046875 C 474.503906 609.074219 474.589844 609.136719 474.660156 609.246094 C 474.730469 609.355469 474.765625 609.484375 474.765625 609.628906 Z M 474.765625 609.628906 " fill-opacity="1" fill-rule="nonzero"/><g clip-path="url(#9052a2721e)"><path fill="#000000" d="M 467.066406 600.738281 C 466.898438 600.738281 466.757812 600.597656 466.757812 600.425781 L 466.757812 587.039062 C 466.757812 586.863281 466.898438 586.722656 467.066406 586.722656 C 467.238281 586.722656 467.375 586.863281 467.375 587.039062 L 467.375 600.425781 C 467.375 600.597656 467.238281 600.738281 467.066406 600.738281 Z M 467.066406 600.738281 " fill-opacity="1" fill-rule="nonzero"/></g><g clip-path="url(#1285bf5726)"><path fill="#e6e7e8" d="M 452.441406 594.6875 L 452.441406 597.347656 C 452.3125 597.328125 452.183594 597.320312 452.050781 597.320312 L 435.210938 597.320312 C 435.078125 597.320312 434.949219 597.328125 434.820312 597.347656 L 434.820312 587.117188 C 434.820312 586.878906 435.019531 586.679688 435.257812 586.679688 L 444.835938 586.679688 L 444.835938 594.25 C 444.835938 594.488281 445.03125 594.6875 445.273438 594.6875 Z M 452.441406 594.6875 " fill-opacity="1" fill-rule="nonzero"/></g><g clip-path="url(#cd5e5ef2dc)"><path fill="#6d6e71" d="M 452.441406 594.25 L 452.441406 594.6875 L 445.273438 594.6875 C 445.03125 594.6875 444.835938 594.488281 444.835938 594.25 L 444.835938 586.679688 L 445.273438 586.679688 C 445.390625 586.679688 445.507812 586.726562 445.59375 586.816406 L 452.3125 593.9375 L 452.324219 593.945312 C 452.339844 593.964844 452.351562 593.984375 452.367188 594.003906 C 452.378906 594.03125 452.398438 594.050781 452.40625 594.078125 C 452.433594 594.132812 452.441406 594.191406 452.441406 594.25 Z M 452.441406 594.25 " fill-opacity="1" fill-rule="nonzero"/></g><path fill="#e6e6e6" d="M 451.566406 609.164062 L 435.210938 609.164062 C 435.078125 609.164062 434.949219 609.15625 434.820312 609.140625 L 434.820312 611.46875 C 434.820312 611.710938 435.019531 611.90625 435.257812 611.90625 L 452.003906 611.90625 C 452.242188 611.90625 452.441406 611.710938 452.441406 611.46875 L 452.441406 609.140625 C 452.3125 609.15625 452.183594 609.164062 452.050781 609.164062 Z M 451.566406 609.164062 " fill-opacity="1" fill-rule="nonzero"/><g clip-path="url(#447022ba3a)"><path fill="#00a651" d="M 452.441406 597.347656 C 452.3125 597.328125 452.183594 597.320312 452.050781 597.320312 L 435.210938 597.320312 C 435.078125 597.320312 434.949219 597.328125 434.820312 597.347656 C 433.230469 597.535156 431.996094 598.894531 431.996094 600.539062 L 431.996094 605.945312 C 431.996094 607.589844 433.230469 608.949219 434.820312 609.140625 C 434.949219 609.15625 435.078125 609.164062 435.210938 609.164062 L 452.050781 609.164062 C 452.183594 609.164062 452.3125 609.15625 452.441406 609.140625 C 454.03125 608.949219 455.265625 607.589844 455.265625 605.945312 L 455.265625 600.539062 C 455.265625 598.894531 454.03125 597.535156 452.441406 597.347656 Z M 452.441406 597.347656 " fill-opacity="1" fill-rule="nonzero"/></g><path fill="#000000" d="M 441.390625 604.578125 C 441.246094 605.113281 440.996094 605.515625 440.648438 605.777344 C 440.300781 606.042969 439.855469 606.171875 439.332031 606.171875 C 438.679688 606.171875 438.136719 605.949219 437.710938 605.496094 C 437.296875 605.054688 437.082031 604.4375 437.082031 603.671875 C 437.082031 602.859375 437.296875 602.21875 437.714844 601.769531 C 438.140625 601.316406 438.707031 601.082031 439.386719 601.082031 C 439.992188 601.082031 440.488281 601.269531 440.867188 601.621094 C 441.097656 601.835938 441.265625 602.144531 441.375 602.539062 C 441.386719 602.570312 441.378906 602.601562 441.367188 602.628906 C 441.351562 602.652344 441.328125 602.671875 441.296875 602.675781 L 440.359375 602.90625 C 440.328125 602.910156 440.300781 602.90625 440.277344 602.890625 C 440.25 602.875 440.234375 602.851562 440.226562 602.820312 C 440.175781 602.601562 440.074219 602.429688 439.917969 602.304688 C 439.761719 602.175781 439.574219 602.113281 439.339844 602.113281 C 439.023438 602.113281 438.773438 602.222656 438.578125 602.453125 C 438.375 602.683594 438.277344 603.066406 438.277344 603.601562 C 438.277344 604.167969 438.375 604.570312 438.574219 604.800781 C 438.765625 605.03125 439.011719 605.140625 439.324219 605.140625 C 439.550781 605.140625 439.738281 605.070312 439.902344 604.925781 C 440.0625 604.78125 440.183594 604.550781 440.257812 604.230469 C 440.265625 604.199219 440.285156 604.171875 440.3125 604.160156 C 440.339844 604.140625 440.371094 604.136719 440.398438 604.144531 L 441.320312 604.441406 C 441.375 604.457031 441.40625 604.519531 441.390625 604.578125 Z M 441.390625 604.578125 " fill-opacity="1" fill-rule="nonzero"/><path fill="#000000" d="M 445.789062 604.613281 C 445.789062 604.902344 445.710938 605.175781 445.550781 605.433594 C 445.386719 605.679688 445.160156 605.875 444.867188 605.996094 C 444.578125 606.117188 444.222656 606.179688 443.796875 606.179688 C 443.179688 606.179688 442.695312 606.027344 442.355469 605.738281 C 442.019531 605.445312 441.8125 605.019531 441.753906 604.464844 C 441.75 604.4375 441.757812 604.40625 441.773438 604.382812 C 441.792969 604.363281 441.820312 604.34375 441.847656 604.34375 L 442.773438 604.25 C 442.835938 604.246094 442.882812 604.285156 442.890625 604.34375 C 442.9375 604.625 443.042969 604.835938 443.191406 604.960938 C 443.34375 605.089844 443.546875 605.15625 443.8125 605.15625 C 444.085938 605.15625 444.296875 605.097656 444.429688 604.984375 C 444.558594 604.878906 444.625 604.753906 444.625 604.617188 C 444.625 604.527344 444.597656 604.460938 444.550781 604.402344 C 444.5 604.339844 444.398438 604.28125 444.257812 604.230469 C 444.152344 604.195312 443.898438 604.125 443.507812 604.027344 C 442.972656 603.894531 442.609375 603.734375 442.386719 603.535156 C 442.078125 603.253906 441.917969 602.910156 441.917969 602.507812 C 441.917969 602.246094 441.992188 602 442.140625 601.773438 C 442.285156 601.546875 442.5 601.375 442.777344 601.253906 C 443.042969 601.140625 443.367188 601.082031 443.746094 601.082031 C 444.359375 601.082031 444.832031 601.222656 445.152344 601.5 C 445.46875 601.777344 445.640625 602.152344 445.660156 602.613281 C 445.660156 602.675781 445.609375 602.726562 445.554688 602.726562 L 444.601562 602.773438 C 444.546875 602.773438 444.5 602.734375 444.488281 602.679688 C 444.453125 602.464844 444.378906 602.3125 444.269531 602.222656 C 444.15625 602.136719 443.976562 602.085938 443.734375 602.085938 C 443.488281 602.085938 443.289062 602.140625 443.152344 602.238281 C 443.078125 602.289062 443.042969 602.355469 443.042969 602.441406 C 443.042969 602.523438 443.078125 602.589844 443.148438 602.644531 C 443.21875 602.707031 443.421875 602.808594 443.976562 602.9375 C 444.445312 603.046875 444.796875 603.164062 445.027344 603.285156 C 445.265625 603.414062 445.453125 603.585938 445.589844 603.804688 C 445.722656 604.023438 445.789062 604.296875 445.789062 604.613281 Z M 445.789062 604.613281 " fill-opacity="1" fill-rule="nonzero"/><path fill="#000000" d="M 450.480469 601.3125 L 448.796875 606.019531 C 448.78125 606.0625 448.742188 606.09375 448.691406 606.09375 L 447.679688 606.09375 C 447.632812 606.09375 447.59375 606.0625 447.578125 606.019531 L 445.894531 601.3125 C 445.886719 601.277344 445.890625 601.242188 445.90625 601.210938 C 445.929688 601.179688 445.964844 601.164062 446 601.164062 L 447.027344 601.164062 C 447.078125 601.164062 447.117188 601.195312 447.132812 601.238281 L 448.214844 604.414062 L 449.265625 601.238281 C 449.28125 601.195312 449.324219 601.164062 449.371094 601.164062 L 450.378906 601.164062 C 450.414062 601.164062 450.445312 601.179688 450.464844 601.210938 C 450.488281 601.242188 450.492188 601.277344 450.480469 601.3125 Z M 450.480469 601.3125 " fill-opacity="1" fill-rule="nonzero"/><g clip-path="url(#a76094c773)"><path fill="#000000" d="M 580.96875 597.476562 L 580.96875 594.378906 C 580.96875 594.261719 580.921875 594.164062 580.855469 594.089844 C 580.847656 594.082031 580.847656 594.078125 580.847656 594.074219 L 574.121094 586.945312 C 574.113281 586.945312 574.113281 586.945312 574.113281 586.945312 C 574.035156 586.863281 573.921875 586.808594 573.800781 586.808594 L 563.785156 586.808594 C 563.546875 586.808594 563.347656 587.007812 563.347656 587.246094 L 563.347656 597.476562 C 561.757812 597.667969 560.523438 599.023438 560.523438 600.667969 L 560.523438 606.074219 C 560.523438 607.71875 561.757812 609.074219 563.347656 609.269531 L 563.347656 611.597656 C 563.347656 611.839844 563.546875 612.039062 563.785156 612.039062 L 580.53125 612.039062 C 580.769531 612.039062 580.96875 611.839844 580.96875 611.597656 L 580.96875 609.269531 C 582.558594 609.074219 583.792969 607.71875 583.792969 606.074219 L 583.792969 600.667969 C 583.792969 599.023438 582.558594 597.667969 580.96875 597.476562 Z M 574.238281 588.347656 L 579.515625 593.9375 L 574.238281 593.9375 Z M 564.222656 587.6875 L 573.363281 587.6875 L 573.363281 594.378906 C 573.363281 594.617188 573.558594 594.816406 573.800781 594.816406 L 580.089844 594.816406 L 580.089844 597.449219 L 564.222656 597.449219 Z M 580.089844 611.160156 L 564.222656 611.160156 L 564.222656 609.296875 L 580.089844 609.296875 Z M 582.914062 606.074219 C 582.914062 607.367188 581.867188 608.417969 580.578125 608.417969 L 563.738281 608.417969 C 562.445312 608.417969 561.398438 607.367188 561.398438 606.074219 L 561.398438 600.667969 C 561.398438 599.375 562.445312 598.328125 563.738281 598.328125 L 580.578125 598.328125 C 581.867188 598.328125 582.914062 599.375 582.914062 600.667969 Z M 582.914062 606.074219 " fill-opacity="1" fill-rule="nonzero"/></g><path fill="#e6e7e8" d="M 564.222656 609.296875 L 580.089844 609.296875 L 580.089844 611.160156 L 564.222656 611.160156 Z M 564.222656 609.296875 " fill-opacity="1" fill-rule="nonzero"/><path fill="#e6e7e8" d="M 580.089844 594.816406 L 580.089844 597.449219 L 564.222656 597.449219 L 564.222656 587.6875 L 573.363281 587.6875 L 573.363281 594.378906 C 573.363281 594.617188 573.558594 594.816406 573.800781 594.816406 Z M 580.089844 594.816406 " fill-opacity="1" fill-rule="nonzero"/><path fill="#6d6e71" d="M 579.515625 593.9375 L 574.238281 593.9375 L 574.238281 588.347656 Z M 579.515625 593.9375 " fill-opacity="1" fill-rule="nonzero"/><path fill="#f9a64b" d="M 582.914062 600.667969 L 582.914062 606.074219 C 582.914062 607.367188 581.867188 608.417969 580.578125 608.417969 L 563.738281 608.417969 C 562.445312 608.417969 561.398438 607.367188 561.398438 606.074219 L 561.398438 600.667969 C 561.398438 599.375 562.445312 598.328125 563.738281 598.328125 L 580.578125 598.328125 C 581.871094 598.328125 582.914062 599.375 582.914062 600.667969 Z M 582.914062 600.667969 " fill-opacity="1" fill-rule="nonzero"/><path fill="#000000" d="M 569.957031 602.65625 C 569.847656 602.339844 569.6875 602.070312 569.484375 601.855469 C 569.273438 601.628906 569.019531 601.476562 568.726562 601.390625 C 568.507812 601.324219 568.203125 601.292969 567.800781 601.292969 L 566.0625 601.292969 C 566.007812 601.292969 565.953125 601.34375 565.953125 601.402344 L 565.953125 606.113281 C 565.953125 606.175781 566.007812 606.222656 566.0625 606.222656 L 567.851562 606.222656 C 568.207031 606.222656 568.503906 606.1875 568.726562 606.117188 C 569.019531 606.027344 569.257812 605.890625 569.433594 605.71875 C 569.664062 605.496094 569.84375 605.199219 569.964844 604.839844 C 570.066406 604.546875 570.113281 604.199219 570.113281 603.800781 C 570.113281 603.355469 570.058594 602.96875 569.957031 602.65625 Z M 568.820312 604.589844 C 568.765625 604.785156 568.695312 604.921875 568.605469 605 C 568.519531 605.078125 568.40625 605.136719 568.269531 605.171875 C 568.160156 605.199219 567.976562 605.210938 567.722656 605.210938 L 567.121094 605.210938 L 567.121094 602.3125 L 567.441406 602.3125 C 567.816406 602.3125 568.070312 602.324219 568.195312 602.355469 C 568.351562 602.386719 568.484375 602.453125 568.585938 602.546875 C 568.6875 602.644531 568.765625 602.78125 568.824219 602.957031 C 568.882812 603.140625 568.914062 603.410156 568.914062 603.761719 C 568.914062 604.113281 568.882812 604.394531 568.820312 604.589844 Z M 568.820312 604.589844 " fill-opacity="1" fill-rule="nonzero"/><path fill="#000000" d="M 574.800781 606.167969 C 574.78125 606.203125 574.746094 606.222656 574.703125 606.222656 L 573.558594 606.222656 C 573.523438 606.222656 573.488281 606.207031 573.46875 606.171875 L 572.515625 604.6875 L 571.5625 606.175781 C 571.542969 606.207031 571.507812 606.222656 571.46875 606.222656 L 570.332031 606.222656 C 570.292969 606.222656 570.257812 606.203125 570.234375 606.167969 C 570.21875 606.132812 570.21875 606.085938 570.238281 606.054688 L 571.808594 603.65625 L 570.394531 601.464844 C 570.371094 601.429688 570.367188 601.382812 570.386719 601.347656 C 570.40625 601.3125 570.441406 601.292969 570.484375 601.292969 L 571.59375 601.292969 C 571.632812 601.292969 571.667969 601.3125 571.683594 601.34375 L 572.535156 602.710938 L 573.367188 601.34375 C 573.382812 601.3125 573.421875 601.292969 573.457031 601.292969 L 574.5625 601.292969 C 574.601562 601.292969 574.636719 601.3125 574.65625 601.347656 C 574.675781 601.382812 574.675781 601.429688 574.652344 601.464844 L 573.226562 603.6875 L 574.792969 606.054688 C 574.816406 606.085938 574.820312 606.132812 574.800781 606.167969 Z M 574.800781 606.167969 " fill-opacity="1" fill-rule="nonzero"/><path fill="#000000" d="M 578.527344 601.402344 L 578.527344 602.199219 C 578.527344 602.261719 578.480469 602.308594 578.417969 602.308594 L 576.257812 602.308594 L 576.257812 603.207031 L 578.109375 603.207031 C 578.167969 603.207031 578.21875 603.253906 578.21875 603.316406 L 578.21875 604.113281 C 578.21875 604.175781 578.167969 604.222656 578.109375 604.222656 L 576.257812 604.222656 L 576.257812 606.113281 C 576.257812 606.175781 576.207031 606.222656 576.148438 606.222656 L 575.195312 606.222656 C 575.140625 606.222656 575.085938 606.175781 575.085938 606.113281 L 575.085938 601.402344 C 575.085938 601.34375 575.140625 601.292969 575.195312 601.292969 L 578.417969 601.292969 C 578.480469 601.292969 578.527344 601.34375 578.527344 601.402344 Z M 578.527344 601.402344 " fill-opacity="1" fill-rule="nonzero"/><g clip-path="url(#064613dc08)"><path fill="#57cbf5" d="M 844.632812 590.453125 L 828.53125 590.453125 L 828.53125 620.773438 L 849.617188 620.773438 C 850.003906 620.773438 850.375 620.699219 850.730469 620.554688 C 851.085938 620.40625 851.398438 620.199219 851.671875 619.929688 C 851.945312 619.660156 852.15625 619.347656 852.300781 618.996094 C 852.449219 618.640625 852.523438 618.273438 852.523438 617.890625 L 852.523438 597.941406 Z M 844.632812 590.453125 " fill-opacity="1" fill-rule="nonzero"/></g><g clip-path="url(#dc87132bb6)"><path fill="#5684c4" d="M 852.476562 597.941406 L 844.632812 590.453125 L 844.632812 595.414062 C 844.628906 595.746094 844.6875 596.066406 844.816406 596.378906 C 844.941406 596.6875 845.121094 596.960938 845.359375 597.199219 C 845.59375 597.433594 845.867188 597.617188 846.179688 597.746094 C 846.488281 597.875 846.8125 597.941406 847.148438 597.941406 Z M 852.476562 597.941406 " fill-opacity="0.4" fill-rule="nonzero"/></g><path fill="#ffffff" d="M 835.902344 617.003906 L 835.382812 617.003906 C 835.277344 617.003906 835.175781 617.003906 835.078125 616.953125 C 834.984375 616.9375 834.890625 616.914062 834.800781 616.878906 C 834.5625 616.8125 834.445312 616.65625 834.449219 616.410156 L 834.449219 613.429688 C 834.445312 613.347656 834.46875 613.28125 834.519531 613.21875 C 834.578125 613.164062 834.648438 613.128906 834.722656 613.105469 C 834.914062 613.042969 835.105469 613.003906 835.304688 612.984375 C 835.507812 612.984375 835.695312 612.984375 835.859375 612.984375 C 836.164062 612.980469 836.464844 613.019531 836.757812 613.105469 C 837.019531 613.179688 837.25 613.304688 837.457031 613.480469 C 837.644531 613.644531 837.789062 613.84375 837.890625 614.074219 C 838.003906 614.363281 838.054688 614.660156 838.046875 614.972656 C 838.054688 615.277344 838.003906 615.574219 837.898438 615.859375 C 837.6875 616.375 837.3125 616.714844 836.777344 616.871094 C 836.492188 616.964844 836.203125 617.007812 835.902344 617.003906 Z M 835.542969 616.082031 L 835.71875 616.082031 C 835.78125 616.089844 835.847656 616.089844 835.910156 616.082031 C 836.046875 616.085938 836.175781 616.0625 836.304688 616.019531 C 836.425781 615.980469 836.53125 615.914062 836.617188 615.824219 C 836.714844 615.722656 836.785156 615.609375 836.828125 615.480469 C 836.878906 615.3125 836.902344 615.140625 836.898438 614.964844 C 836.921875 614.644531 836.832031 614.359375 836.628906 614.109375 C 836.4375 613.90625 836.199219 613.808594 835.914062 613.820312 L 835.542969 613.820312 Z M 835.542969 616.082031 " fill-opacity="1" fill-rule="nonzero"/><path fill="#ffffff" d="M 838.6875 614.976562 C 838.683594 614.675781 838.734375 614.382812 838.84375 614.101562 C 839.042969 613.601562 839.402344 613.257812 839.914062 613.078125 C 840.445312 612.894531 840.976562 612.894531 841.503906 613.078125 C 841.746094 613.164062 841.960938 613.292969 842.144531 613.46875 C 842.335938 613.648438 842.484375 613.859375 842.582031 614.101562 C 842.6875 614.382812 842.738281 614.675781 842.730469 614.976562 C 842.738281 615.28125 842.6875 615.574219 842.582031 615.859375 C 842.484375 616.101562 842.34375 616.316406 842.15625 616.5 C 841.96875 616.671875 841.753906 616.800781 841.511719 616.882812 C 841.253906 616.976562 840.984375 617.023438 840.710938 617.015625 C 840.433594 617.019531 840.164062 616.976562 839.902344 616.882812 C 839.660156 616.796875 839.449219 616.664062 839.261719 616.488281 C 839.074219 616.304688 838.933594 616.089844 838.84375 615.847656 C 838.734375 615.566406 838.683594 615.277344 838.6875 614.976562 Z M 839.851562 614.976562 C 839.828125 615.292969 839.90625 615.582031 840.089844 615.839844 C 840.25 616.039062 840.460938 616.136719 840.722656 616.125 C 840.980469 616.136719 841.195312 616.039062 841.359375 615.839844 C 841.539062 615.582031 841.617188 615.292969 841.59375 614.976562 C 841.617188 614.664062 841.539062 614.382812 841.359375 614.125 C 841.199219 613.921875 840.988281 613.824219 840.726562 613.835938 C 840.46875 613.828125 840.253906 613.921875 840.089844 614.117188 C 839.902344 614.375 839.816406 614.660156 839.839844 614.976562 Z M 839.851562 614.976562 " fill-opacity="1" fill-rule="nonzero"/><path fill="#ffffff" d="M 845.550781 613.835938 C 845.25 613.816406 845.003906 613.917969 844.800781 614.136719 C 844.601562 614.382812 844.511719 614.664062 844.535156 614.976562 C 844.511719 615.304688 844.609375 615.585938 844.828125 615.832031 C 845.046875 616.039062 845.304688 616.136719 845.609375 616.125 C 845.761719 616.128906 845.910156 616.105469 846.054688 616.054688 C 846.175781 616.011719 846.292969 615.957031 846.40625 615.898438 C 846.476562 615.957031 846.535156 616.027344 846.574219 616.113281 C 846.613281 616.203125 846.632812 616.300781 846.632812 616.402344 C 846.625 616.605469 846.527344 616.75 846.339844 616.839844 C 846.0625 616.980469 845.769531 617.039062 845.457031 617.015625 C 845.183594 617.019531 844.914062 616.976562 844.648438 616.894531 C 844.402344 616.820312 844.183594 616.699219 843.992188 616.527344 C 843.796875 616.347656 843.648438 616.136719 843.546875 615.894531 C 843.429688 615.597656 843.375 615.292969 843.382812 614.976562 C 843.378906 614.675781 843.429688 614.386719 843.539062 614.109375 C 843.636719 613.875 843.777344 613.671875 843.957031 613.496094 C 844.144531 613.324219 844.355469 613.191406 844.597656 613.105469 C 844.847656 612.996094 845.105469 612.9375 845.375 612.921875 C 845.695312 612.902344 845.996094 612.96875 846.28125 613.109375 C 846.488281 613.210938 846.597656 613.375 846.609375 613.601562 C 846.609375 613.703125 846.582031 613.796875 846.527344 613.882812 C 846.472656 613.957031 846.410156 614.019531 846.335938 614.074219 C 846.222656 614.003906 846.101562 613.941406 845.980469 613.886719 C 845.839844 613.847656 845.695312 613.828125 845.550781 613.835938 Z M 845.550781 613.835938 " fill-opacity="1" fill-rule="nonzero"/><path fill="#ffffff" d="M 836.753906 597.695312 L 831.707031 597.695312 C 831.507812 597.667969 831.410156 597.554688 831.410156 597.359375 C 831.410156 597.160156 831.507812 597.046875 831.707031 597.019531 L 836.753906 597.019531 C 836.953125 597.046875 837.050781 597.160156 837.050781 597.359375 C 837.050781 597.554688 836.953125 597.667969 836.753906 597.695312 Z M 836.753906 597.695312 " fill-opacity="1" fill-rule="nonzero"/><path fill="#ffffff" d="M 840.105469 601.789062 L 831.707031 601.789062 C 831.613281 601.789062 831.535156 601.757812 831.46875 601.691406 C 831.402344 601.628906 831.371094 601.546875 831.371094 601.457031 C 831.371094 601.363281 831.402344 601.285156 831.46875 601.21875 C 831.535156 601.152344 831.613281 601.117188 831.707031 601.117188 L 840.105469 601.117188 C 840.199219 601.117188 840.277344 601.152344 840.34375 601.21875 C 840.410156 601.285156 840.441406 601.363281 840.441406 601.457031 C 840.441406 601.546875 840.410156 601.628906 840.34375 601.691406 C 840.277344 601.757812 840.199219 601.789062 840.105469 601.789062 Z M 840.105469 601.789062 " fill-opacity="1" fill-rule="nonzero"/><path fill="#ffffff" d="M 849.316406 601.789062 L 843.285156 601.789062 C 843.191406 601.789062 843.109375 601.757812 843.042969 601.691406 C 842.976562 601.628906 842.941406 601.550781 842.941406 601.457031 C 842.941406 601.363281 842.976562 601.285156 843.042969 601.21875 C 843.109375 601.152344 843.191406 601.117188 843.285156 601.117188 L 849.316406 601.117188 C 849.410156 601.117188 849.488281 601.152344 849.554688 601.21875 C 849.621094 601.285156 849.652344 601.363281 849.652344 601.457031 C 849.652344 601.546875 849.621094 601.628906 849.554688 601.691406 C 849.488281 601.757812 849.410156 601.789062 849.316406 601.789062 Z M 849.316406 601.789062 " fill-opacity="1" fill-rule="nonzero"/><path fill="#ffffff" d="M 836.753906 605.890625 L 831.707031 605.890625 C 831.507812 605.867188 831.410156 605.753906 831.410156 605.554688 C 831.410156 605.355469 831.507812 605.246094 831.707031 605.21875 L 836.753906 605.21875 C 836.953125 605.246094 837.050781 605.355469 837.050781 605.554688 C 837.050781 605.753906 836.953125 605.867188 836.753906 605.890625 Z M 836.753906 605.890625 " fill-opacity="1" fill-rule="nonzero"/><path fill="#ffffff" d="M 841.710938 597.695312 L 840.199219 597.695312 C 840 597.667969 839.898438 597.554688 839.898438 597.359375 C 839.898438 597.160156 840 597.046875 840.199219 597.019531 L 841.710938 597.019531 C 841.90625 597.046875 842.007812 597.160156 842.007812 597.359375 C 842.007812 597.554688 841.90625 597.667969 841.710938 597.695312 Z M 841.710938 597.695312 " fill-opacity="1" fill-rule="nonzero"/><g clip-path="url(#f349a6c6e8)"><path fill="#abb8be" d="M 593.234375 591.625 L 614.777344 591.625 L 614.777344 619.207031 L 593.234375 619.207031 Z M 593.234375 591.625 " fill-opacity="1" fill-rule="nonzero"/></g><path fill="#ffffff" d="M 595.109375 593.464844 L 612.902344 593.464844 L 612.902344 607.257812 L 595.109375 607.257812 Z M 595.109375 593.464844 " fill-opacity="1" fill-rule="nonzero"/><path fill="#cccccc" d="M 599.792969 598.523438 L 608.222656 598.523438 L 608.222656 604.039062 L 599.792969 604.039062 Z M 599.792969 598.523438 " fill-opacity="1" fill-rule="nonzero"/><path fill="#f2f2f2" d="M 599.792969 598.523438 L 599.792969 602.660156 L 605.410156 602.660156 C 605.597656 602.660156 605.777344 602.625 605.949219 602.554688 C 606.121094 602.484375 606.273438 602.382812 606.40625 602.253906 C 606.535156 602.125 606.636719 601.976562 606.710938 601.808594 C 606.78125 601.640625 606.816406 601.464844 606.816406 601.28125 L 606.816406 598.523438 Z M 599.792969 598.523438 " fill-opacity="1" fill-rule="nonzero"/><g clip-path="url(#b116c03dcd)"><path fill="#e78438" d="M 593.234375 609.09375 L 614.777344 609.09375 L 614.777344 619.207031 L 593.234375 619.207031 Z M 593.234375 609.09375 " fill-opacity="1" fill-rule="nonzero"/></g><path fill="#ec9d60" d="M 593.234375 609.09375 L 593.234375 617.828125 L 611.5 617.828125 C 611.6875 617.828125 611.863281 617.792969 612.035156 617.722656 C 612.210938 617.652344 612.359375 617.554688 612.492188 617.425781 C 612.625 617.296875 612.726562 617.144531 612.796875 616.976562 C 612.867188 616.808594 612.902344 616.632812 612.902344 616.449219 L 612.902344 609.09375 Z M 593.234375 609.09375 " fill-opacity="1" fill-rule="nonzero"/><path fill="#ffffff" d="M 594.640625 613.53125 C 594.511719 613.53125 594.398438 613.484375 594.308594 613.394531 C 594.21875 613.304688 594.171875 613.199219 594.171875 613.070312 L 594.171875 610.3125 C 594.171875 610.1875 594.21875 610.078125 594.308594 609.988281 C 594.398438 609.898438 594.511719 609.851562 594.640625 609.851562 C 594.769531 609.851562 594.878906 609.898438 594.96875 609.988281 C 595.0625 610.078125 595.109375 610.1875 595.109375 610.3125 L 595.109375 613.070312 C 595.109375 613.199219 595.0625 613.304688 594.96875 613.394531 C 594.878906 613.484375 594.769531 613.53125 594.640625 613.53125 Z M 594.640625 613.53125 " fill-opacity="1" fill-rule="nonzero"/><path fill="#ffffff" d="M 594.640625 615.828125 C 594.511719 615.828125 594.398438 615.785156 594.308594 615.695312 C 594.21875 615.605469 594.171875 615.496094 594.171875 615.371094 L 594.171875 614.910156 C 594.171875 614.78125 594.21875 614.675781 594.308594 614.585938 C 594.398438 614.496094 594.511719 614.449219 594.640625 614.449219 C 594.769531 614.449219 594.878906 614.496094 594.96875 614.585938 C 595.0625 614.675781 595.109375 614.78125 595.109375 614.910156 L 595.109375 615.371094 C 595.109375 615.496094 595.0625 615.605469 594.96875 615.695312 C 594.878906 615.785156 594.769531 615.828125 594.640625 615.828125 Z M 594.640625 615.828125 " fill-opacity="1" fill-rule="nonzero"/><path fill="#e78438" d="M 598.855469 596.683594 L 609.15625 596.683594 L 609.15625 598.523438 L 598.855469 598.523438 Z M 598.855469 596.683594 " fill-opacity="1" fill-rule="nonzero"/><path fill="#e78438" d="M 605.410156 601.28125 C 605.410156 601.464844 605.375 601.640625 605.304688 601.808594 C 605.234375 601.976562 605.132812 602.125 605 602.253906 C 604.867188 602.382812 604.714844 602.484375 604.542969 602.554688 C 604.371094 602.625 604.191406 602.660156 604.007812 602.660156 C 603.820312 602.660156 603.640625 602.625 603.46875 602.554688 C 603.296875 602.484375 603.144531 602.382812 603.011719 602.253906 C 602.878906 602.125 602.777344 601.976562 602.707031 601.808594 C 602.636719 601.640625 602.601562 601.464844 602.601562 601.28125 C 602.601562 601.097656 602.636719 600.921875 602.707031 600.753906 C 602.777344 600.582031 602.878906 600.433594 603.011719 600.304688 C 603.144531 600.175781 603.296875 600.074219 603.46875 600.007812 C 603.640625 599.9375 603.820312 599.902344 604.007812 599.902344 C 604.191406 599.902344 604.371094 599.9375 604.542969 600.007812 C 604.714844 600.074219 604.867188 600.175781 605 600.304688 C 605.132812 600.433594 605.234375 600.582031 605.304688 600.753906 C 605.375 600.921875 605.410156 601.097656 605.410156 601.28125 Z M 605.410156 601.28125 " fill-opacity="1" fill-rule="nonzero"/><path fill="#6bc148" d="M 602.601562 601.28125 C 602.601562 601.773438 602.808594 602.15625 603.230469 602.429688 L 604.007812 601.28125 L 604.007812 599.902344 C 603.820312 599.902344 603.640625 599.9375 603.46875 600.007812 C 603.296875 600.074219 603.144531 600.175781 603.011719 600.304688 C 602.878906 600.433594 602.777344 600.582031 602.707031 600.753906 C 602.636719 600.921875 602.601562 601.097656 602.601562 601.28125 Z M 602.601562 601.28125 " fill-opacity="1" fill-rule="nonzero"/><path fill="#ec9d60" d="M 598.855469 597.601562 L 607.285156 597.601562 C 607.542969 597.601562 607.765625 597.511719 607.945312 597.332031 C 608.128906 597.152344 608.222656 596.9375 608.222656 596.683594 L 598.855469 596.683594 Z M 598.855469 597.601562 " fill-opacity="1" fill-rule="nonzero"/><path fill="#000000" d="M 595.109375 607.714844 L 612.902344 607.714844 C 613.035156 607.714844 613.144531 607.671875 613.234375 607.582031 C 613.328125 607.492188 613.371094 607.382812 613.371094 607.257812 L 613.371094 593.464844 C 613.371094 593.339844 613.328125 593.230469 613.234375 593.140625 C 613.144531 593.050781 613.035156 593.007812 612.902344 593.007812 L 595.109375 593.007812 C 594.976562 593.007812 594.867188 593.050781 594.777344 593.140625 C 594.683594 593.230469 594.640625 593.339844 594.640625 593.464844 L 594.640625 607.257812 C 594.640625 607.382812 594.683594 607.492188 594.777344 607.582031 C 594.867188 607.671875 594.976562 607.714844 595.109375 607.714844 Z M 595.574219 593.925781 L 612.4375 593.925781 L 612.4375 606.796875 L 595.574219 606.796875 Z M 595.574219 593.925781 " fill-opacity="1" fill-rule="nonzero"/><path fill="#000000" d="M 611.03125 594.84375 L 609.15625 594.84375 L 609.15625 595.765625 L 610.5625 595.765625 L 610.5625 597.144531 L 611.5 597.144531 L 611.5 595.304688 C 611.5 595.175781 611.453125 595.070312 611.363281 594.980469 C 611.269531 594.890625 611.160156 594.84375 611.03125 594.84375 Z M 611.03125 594.84375 " fill-opacity="1" fill-rule="nonzero"/><path fill="#000000" d="M 597.449219 595.765625 L 598.855469 595.765625 L 598.855469 594.84375 L 596.980469 594.84375 C 596.851562 594.84375 596.742188 594.890625 596.648438 594.980469 C 596.558594 595.070312 596.511719 595.175781 596.511719 595.304688 L 596.511719 597.144531 L 597.449219 597.144531 Z M 597.449219 595.765625 " fill-opacity="1" fill-rule="nonzero"/><path fill="#000000" d="M 610.5625 604.957031 L 609.15625 604.957031 L 609.15625 605.875 L 611.03125 605.875 C 611.160156 605.875 611.269531 605.832031 611.363281 605.742188 C 611.453125 605.652344 611.5 605.542969 611.5 605.417969 L 611.5 603.578125 L 610.5625 603.578125 Z M 610.5625 604.957031 " fill-opacity="1" fill-rule="nonzero"/><path fill="#000000" d="M 597.449219 603.578125 L 596.511719 603.578125 L 596.511719 605.417969 C 596.511719 605.542969 596.558594 605.652344 596.648438 605.742188 C 596.742188 605.832031 596.851562 605.875 596.980469 605.875 L 598.855469 605.875 L 598.855469 604.957031 L 597.449219 604.957031 Z M 597.449219 603.578125 " fill-opacity="1" fill-rule="nonzero"/><path fill="#000000" d="M 609.15625 598.980469 C 609.285156 598.980469 609.398438 598.9375 609.488281 598.847656 C 609.582031 598.757812 609.625 598.648438 609.625 598.523438 L 609.625 596.683594 C 609.625 596.554688 609.582031 596.449219 609.488281 596.359375 C 609.398438 596.269531 609.285156 596.222656 609.15625 596.222656 L 598.855469 596.222656 C 598.726562 596.222656 598.613281 596.269531 598.523438 596.359375 C 598.433594 596.449219 598.386719 596.554688 598.386719 596.683594 L 598.386719 598.523438 C 598.386719 598.648438 598.433594 598.757812 598.523438 598.847656 C 598.613281 598.9375 598.726562 598.980469 598.855469 598.980469 L 599.324219 598.980469 L 599.324219 604.039062 C 599.324219 604.164062 599.367188 604.273438 599.460938 604.363281 C 599.550781 604.453125 599.660156 604.496094 599.792969 604.496094 L 603.539062 604.496094 L 603.539062 605.417969 L 603.070312 605.417969 L 603.070312 606.335938 L 604.941406 606.335938 L 604.941406 605.417969 L 604.472656 605.417969 L 604.472656 604.496094 L 608.222656 604.496094 C 608.351562 604.496094 608.460938 604.453125 608.550781 604.363281 C 608.644531 604.273438 608.6875 604.164062 608.6875 604.039062 L 608.6875 598.980469 Z M 599.324219 597.144531 L 608.6875 597.144531 L 608.6875 598.0625 L 599.324219 598.0625 Z M 607.753906 603.578125 L 600.257812 603.578125 L 600.257812 598.980469 L 607.753906 598.980469 Z M 607.753906 603.578125 " fill-opacity="1" fill-rule="nonzero"/><path fill="#000000" d="M 604.007812 603.117188 C 604.253906 603.117188 604.492188 603.070312 604.722656 602.980469 C 604.953125 602.886719 605.15625 602.753906 605.332031 602.582031 C 605.507812 602.40625 605.640625 602.210938 605.738281 601.984375 C 605.832031 601.757812 605.878906 601.523438 605.878906 601.28125 C 605.878906 601.035156 605.832031 600.800781 605.738281 600.578125 C 605.640625 600.351562 605.507812 600.152344 605.332031 599.980469 C 605.15625 599.808594 604.953125 599.675781 604.722656 599.582031 C 604.492188 599.488281 604.253906 599.441406 604.007812 599.441406 C 603.757812 599.441406 603.519531 599.488281 603.289062 599.582031 C 603.058594 599.675781 602.855469 599.808594 602.679688 599.980469 C 602.503906 600.152344 602.371094 600.351562 602.273438 600.578125 C 602.179688 600.800781 602.132812 601.035156 602.132812 601.28125 C 602.132812 601.523438 602.179688 601.757812 602.273438 601.984375 C 602.371094 602.210938 602.503906 602.40625 602.679688 602.582031 C 602.855469 602.753906 603.058594 602.886719 603.289062 602.980469 C 603.519531 603.070312 603.757812 603.117188 604.007812 603.117188 Z M 604.941406 601.28125 C 604.941406 601.535156 604.851562 601.75 604.667969 601.929688 C 604.484375 602.109375 604.265625 602.199219 604.007812 602.199219 L 603.949219 602.199219 L 604.394531 601.539062 C 604.449219 601.460938 604.472656 601.375 604.472656 601.28125 L 604.472656 600.488281 C 604.785156 600.664062 604.941406 600.929688 604.941406 601.28125 Z M 603.539062 600.488281 L 603.539062 601.140625 L 603.167969 601.683594 C 603.0625 601.46875 603.042969 601.246094 603.113281 601.015625 C 603.183594 600.785156 603.328125 600.609375 603.539062 600.488281 Z M 603.539062 600.488281 " fill-opacity="1" fill-rule="nonzero"/><path fill="#000000" d="M 606.347656 602.199219 L 607.285156 602.199219 L 607.285156 603.117188 L 606.347656 603.117188 Z M 606.347656 602.199219 " fill-opacity="1" fill-rule="nonzero"/><path fill="#000000" d="M 599.558594 610.933594 L 598.386719 610.933594 C 598.257812 610.933594 598.144531 610.976562 598.054688 611.066406 C 597.964844 611.15625 597.917969 611.265625 597.917969 611.394531 L 597.917969 617.367188 L 598.855469 617.367188 L 598.855469 615.070312 L 599.558594 615.070312 C 599.835938 615.070312 600.105469 615.019531 600.363281 614.914062 C 600.621094 614.808594 600.847656 614.660156 601.046875 614.464844 C 601.246094 614.269531 601.398438 614.046875 601.503906 613.792969 C 601.609375 613.539062 601.664062 613.277344 601.664062 613 C 601.664062 612.726562 601.609375 612.464844 601.503906 612.210938 C 601.398438 611.957031 601.246094 611.734375 601.046875 611.539062 C 600.847656 611.34375 600.621094 611.195312 600.363281 611.089844 C 600.105469 610.984375 599.835938 610.933594 599.558594 610.933594 Z M 599.558594 614.152344 L 598.855469 614.152344 L 598.855469 611.851562 L 599.558594 611.851562 C 599.710938 611.851562 599.863281 611.882812 600.003906 611.941406 C 600.148438 612 600.273438 612.082031 600.382812 612.1875 C 600.496094 612.296875 600.578125 612.421875 600.636719 612.5625 C 600.699219 612.703125 600.726562 612.847656 600.726562 613 C 600.726562 613.152344 600.699219 613.300781 600.636719 613.441406 C 600.578125 613.582031 600.496094 613.707031 600.382812 613.816406 C 600.273438 613.921875 600.148438 614.003906 600.003906 614.0625 C 599.863281 614.121094 599.710938 614.152344 599.558594 614.152344 Z M 599.558594 614.152344 " fill-opacity="1" fill-rule="nonzero"/><path fill="#000000" d="M 603.773438 610.933594 L 602.601562 610.933594 C 602.472656 610.933594 602.359375 610.976562 602.269531 611.066406 C 602.179688 611.15625 602.132812 611.265625 602.132812 611.394531 L 602.132812 617.367188 L 603.070312 617.367188 L 603.070312 615.070312 L 603.773438 615.070312 C 604.050781 615.070312 604.320312 615.019531 604.578125 614.914062 C 604.835938 614.808594 605.0625 614.660156 605.261719 614.464844 C 605.460938 614.269531 605.613281 614.046875 605.71875 613.792969 C 605.824219 613.539062 605.878906 613.277344 605.878906 613 C 605.878906 612.726562 605.824219 612.464844 605.71875 612.210938 C 605.613281 611.957031 605.460938 611.734375 605.261719 611.539062 C 605.0625 611.34375 604.835938 611.195312 604.578125 611.089844 C 604.320312 610.984375 604.050781 610.933594 603.773438 610.933594 Z M 603.773438 614.152344 L 603.070312 614.152344 L 603.070312 611.851562 L 603.773438 611.851562 C 603.925781 611.851562 604.078125 611.882812 604.21875 611.941406 C 604.363281 612 604.488281 612.082031 604.601562 612.1875 C 604.710938 612.296875 604.792969 612.421875 604.855469 612.5625 C 604.914062 612.703125 604.941406 612.847656 604.941406 613 C 604.941406 613.152344 604.914062 613.300781 604.855469 613.441406 C 604.792969 613.582031 604.710938 613.707031 604.601562 613.816406 C 604.488281 613.921875 604.363281 614.003906 604.21875 614.0625 C 604.078125 614.121094 603.925781 614.152344 603.773438 614.152344 Z M 603.773438 614.152344 " fill-opacity="1" fill-rule="nonzero"/><path fill="#000000" d="M 606.347656 611.851562 L 607.753906 611.851562 L 607.753906 617.367188 L 608.6875 617.367188 L 608.6875 611.851562 L 610.09375 611.851562 L 610.09375 610.933594 L 606.347656 610.933594 Z M 606.347656 611.851562 " fill-opacity="1" fill-rule="nonzero"/><g clip-path="url(#dd06380972)"><path fill="#000000" d="M 614.777344 591.167969 L 593.234375 591.167969 C 593.105469 591.167969 592.996094 591.210938 592.902344 591.300781 C 592.8125 591.390625 592.765625 591.5 592.765625 591.625 L 592.765625 619.207031 C 592.765625 619.335938 592.8125 619.441406 592.902344 619.53125 C 592.996094 619.621094 593.105469 619.667969 593.234375 619.667969 L 614.777344 619.667969 C 614.90625 619.667969 615.015625 619.621094 615.109375 619.53125 C 615.199219 619.441406 615.246094 619.335938 615.246094 619.207031 L 615.246094 591.625 C 615.246094 591.5 615.199219 591.390625 615.109375 591.300781 C 615.015625 591.210938 614.90625 591.167969 614.777344 591.167969 Z M 614.308594 592.085938 L 614.308594 608.636719 L 593.703125 608.636719 L 593.703125 592.085938 Z M 593.703125 618.746094 L 593.703125 609.554688 L 614.308594 609.554688 L 614.308594 618.746094 Z M 593.703125 618.746094 " fill-opacity="1" fill-rule="nonzero"/></g><path fill="#231f20" d="M 980.644531 602.867188 C 980.328125 602.867188 980.097656 603.105469 980.097656 603.433594 C 980.097656 603.761719 980.328125 604.003906 980.640625 604.003906 C 980.957031 604.003906 981.1875 603.765625 981.1875 603.433594 C 981.1875 603.105469 980.960938 602.867188 980.644531 602.867188 " fill-opacity="1" fill-rule="nonzero"/><path fill="#231f20" d="M 982.8125 603.1875 L 982.707031 603.1875 C 982.558594 603.183594 982.4375 603.0625 982.4375 602.910156 L 982.4375 600.398438 C 982.4375 600.246094 982.554688 600.128906 982.699219 600.117188 C 982.761719 600.117188 982.828125 600.113281 982.902344 600.113281 C 983.417969 600.113281 983.8125 600.246094 984.074219 600.507812 C 984.316406 600.753906 984.441406 601.109375 984.4375 601.570312 C 984.4375 602.628906 983.875 603.1875 982.8125 603.1875 Z M 982.875 599.332031 C 982.484375 599.332031 982.085938 599.363281 981.691406 599.425781 L 981.542969 599.445312 L 981.542969 603.90625 L 981.699219 603.921875 C 981.996094 603.957031 982.335938 603.972656 982.707031 603.972656 C 983.578125 603.972656 984.265625 603.746094 984.695312 603.316406 C 985.128906 602.890625 985.355469 602.28125 985.355469 601.550781 C 985.355469 600.855469 985.136719 600.304688 984.703125 599.90625 C 984.292969 599.519531 983.691406 599.332031 982.875 599.332031 " fill-opacity="1" fill-rule="nonzero"/><g clip-path="url(#d210f28a2d)"><path fill="#231f20" d="M 992.921875 611.054688 C 992.921875 612.019531 992.136719 612.804688 991.171875 612.804688 L 977.652344 612.804688 C 976.683594 612.804688 975.898438 612.019531 975.898438 611.054688 L 975.898438 592.28125 C 975.898438 591.316406 976.683594 590.53125 977.652344 590.53125 L 989.46875 590.53125 L 989.46875 593.699219 C 989.46875 593.738281 989.476562 593.773438 989.492188 593.808594 C 989.503906 593.84375 989.523438 593.871094 989.550781 593.898438 C 989.574219 593.921875 989.605469 593.945312 989.640625 593.957031 C 989.675781 593.972656 989.710938 593.980469 989.75 593.980469 L 992.921875 593.980469 Z M 989.75 590.53125 L 992.921875 593.703125 L 990.03125 593.703125 C 989.875 593.703125 989.75 593.578125 989.75 593.421875 Z M 984.410156 583.671875 C 974.472656 583.671875 966.414062 591.730469 966.414062 601.667969 C 966.414062 611.609375 974.472656 619.667969 984.410156 619.667969 C 994.351562 619.667969 1002.410156 611.609375 1002.410156 601.667969 C 1002.410156 591.730469 994.351562 583.671875 984.410156 583.671875 " fill-opacity="1" fill-rule="nonzero"/></g><path fill="#231f20" d="M 986.890625 603.199219 L 986.882812 603.199219 C 986.730469 603.199219 986.609375 603.074219 986.609375 602.921875 L 986.609375 602.1875 C 986.609375 602.035156 986.730469 601.914062 986.882812 601.914062 C 987.226562 601.914062 987.800781 601.996094 987.800781 602.554688 C 987.800781 603.085938 987.304688 603.199219 986.890625 603.199219 Z M 986.609375 600.378906 C 986.609375 600.226562 986.730469 600.101562 986.882812 600.101562 L 986.917969 600.101562 C 987.667969 600.101562 987.667969 600.476562 987.667969 600.617188 C 987.667969 600.941406 987.378906 601.148438 986.929688 601.148438 L 986.882812 601.148438 C 986.730469 601.148438 986.609375 601.027344 986.609375 600.875 Z M 988.328125 601.648438 C 988.214844 601.546875 988.214844 601.375 988.3125 601.257812 C 988.476562 601.0625 988.570312 600.820312 988.570312 600.558594 C 988.570312 600.183594 988.421875 599.878906 988.152344 599.679688 C 987.859375 599.441406 987.46875 599.332031 986.882812 599.332031 C 986.519531 599.332031 986.121094 599.371094 985.851562 599.425781 L 985.714844 599.453125 L 985.714844 603.898438 L 985.863281 603.921875 C 986.007812 603.941406 986.304688 603.972656 986.734375 603.972656 C 987.484375 603.972656 987.984375 603.832031 988.316406 603.527344 C 988.589844 603.265625 988.726562 602.9375 988.726562 602.558594 C 988.726562 602.15625 988.558594 601.855469 988.328125 601.648438 " fill-opacity="1" fill-rule="nonzero"/></svg>